<svg width="297" height="400" viewBox="0 0 297 400" fill="none" xmlns="http://www.w3.org/2000/svg">
<g clip-path="url(#clip0_81437_3442)">
<path d="M86.4159 86C46.4215 86 14 96.2609 14 108.918C14 121.576 46.4215 131.837 86.4159 131.837C108.83 131.837 127 127.493 127 122.135C127 116.777 108.83 112.433 86.4159 112.433C46.4215 112.433 14 122.694 14 135.352C14 148.009 46.4215 158.271 86.4159 158.271C108.83 158.271 127 153.927 127 148.569C127 143.21 108.83 138.867 86.4159 138.867C46.4215 138.867 14 149.191 14 161.926C14 174.661 46.4215 184.985 86.4159 184.985C108.83 184.985 127 180.641 127 175.283C127 169.925 108.83 165.582 86.4159 165.582C46.4215 165.582 14 175.842 14 188.5C14 201.158 46.4215 211.418 86.4159 211.418C108.83 211.418 127 207.075 127 201.717C127 196.359 108.83 192.015 86.4159 192.015C46.4215 192.015 14 202.276 14 214.934C14 227.591 46.4215 237.852 86.4159 237.852C108.83 237.852 127 233.508 127 228.151C127 222.792 108.83 218.449 86.4159 218.449C46.4215 218.449 14 228.71 14 241.367C14 254.024 46.4215 264.285 86.4159 264.285C108.83 264.285 127 259.942 127 254.583C127 249.226 108.83 244.882 86.4159 244.882C46.4215 244.882 14 255.206 14 267.941C14 280.676 46.4215 291 86.4159 291M86.4159 245C46.4215 245 14 255.261 14 267.918C14 280.576 46.4215 290.837 86.4159 290.837C108.83 290.837 127 286.493 127 281.135C127 275.777 108.83 271.433 86.4159 271.433C46.4215 271.433 14 281.694 14 294.352C14 307.009 46.4215 317.271 86.4159 317.271C108.83 317.271 127 312.927 127 307.569C127 302.211 108.83 297.867 86.4159 297.867C46.4215 297.867 14 308.191 14 320.926C14 333.661 46.4215 343.985 86.4159 343.985C108.83 343.985 127 339.641 127 334.283C127 328.925 108.83 324.582 86.4159 324.582C46.4215 324.582 14 334.842 14 347.5C14 360.158 46.4215 370.418 86.4159 370.418C108.83 370.418 127 366.075 127 360.717C127 355.359 108.83 351.015 86.4159 351.015C46.4215 351.015 14 361.276 14 373.934C14 386.591 46.4215 396.852 86.4159 396.852C108.83 396.852 127 392.508 127 387.151C127 381.792 108.83 377.449 86.4159 377.449C46.4215 377.449 14 387.71 14 400.367C14 413.024 46.4215 423.285 86.4159 423.285C108.83 423.285 127 418.942 127 413.583C127 408.226 108.83 403.882 86.4159 403.882C46.4215 403.882 14 414.206 14 426.941C14 439.676 46.4215 450 86.4159 450" stroke="#A1A6B4" stroke-linecap="round"/>
<path d="M228.775 -50C189.135 -50 157 -39.7391 157 -27.0816C157 -14.4242 189.135 -4.16321 228.775 -4.16321C250.991 -4.16321 269 -8.50679 269 -13.8649C269 -19.223 250.991 -23.5665 228.775 -23.5665C189.135 -23.5665 157 -13.3056 157 -0.648186C157 12.0094 189.135 22.2706 228.775 22.2706C250.991 22.2706 269 17.9268 269 12.5686C269 7.21049 250.991 2.86692 228.775 2.86692C189.135 2.86692 157 13.1908 157 25.9259C157 38.6609 189.135 48.9851 228.775 48.9851C250.991 48.9851 269 44.6414 269 39.2831C269 33.9249 250.991 29.582 228.775 29.582C189.135 29.582 157 39.8425 157 52.5C157 65.1575 189.135 75.418 228.775 75.418C250.991 75.418 269 71.0751 269 65.7169C269 60.3586 250.991 56.0149 228.775 56.0149C189.135 56.0149 157 66.2762 157 78.9337C157 91.5912 189.135 101.852 228.775 101.852C250.991 101.852 269 97.508 269 92.1506C269 86.7923 250.991 82.4485 228.775 82.4485C189.135 82.4485 157 92.7099 157 105.367C157 118.024 189.135 128.285 228.775 128.285C250.991 128.285 269 123.942 269 118.583C269 113.226 250.991 108.882 228.775 108.882C189.135 108.882 157 119.206 157 131.941C157 144.676 189.135 155 228.775 155M228.775 109C189.135 109 157 119.261 157 131.918C157 144.576 189.135 154.837 228.775 154.837C250.991 154.837 269 150.493 269 145.135C269 139.777 250.991 135.433 228.775 135.433C189.135 135.433 157 145.694 157 158.352C157 171.009 189.135 181.271 228.775 181.271C250.991 181.271 269 176.927 269 171.569C269 166.211 250.991 161.867 228.775 161.867C189.135 161.867 157 172.191 157 184.926C157 197.661 189.135 207.985 228.775 207.985C250.991 207.985 269 203.641 269 198.283C269 192.925 250.991 188.582 228.775 188.582C189.135 188.582 157 198.842 157 211.5C157 224.158 189.135 234.418 228.775 234.418C250.991 234.418 269 230.075 269 224.717C269 219.359 250.991 215.015 228.775 215.015C189.135 215.015 157 225.276 157 237.934C157 250.591 189.135 260.852 228.775 260.852C250.991 260.852 269 256.508 269 251.151C269 245.792 250.991 241.449 228.775 241.449C189.135 241.449 157 251.71 157 264.367C157 277.024 189.135 287.285 228.775 287.285C250.991 287.285 269 282.942 269 277.583C269 272.226 250.991 267.882 228.775 267.882C189.135 267.882 157 278.206 157 290.941C157 303.676 189.135 314 228.775 314" stroke="#A1A6B4" stroke-linecap="round"/>
</g>
<defs>
<clipPath id="clip0_81437_3442">
<rect width="297" height="400" fill="white"/>
</clipPath>
</defs>
</svg>
