<!-- icon666.com - MILLIONS vector ICONS FREE --><svg id="Layer_1" enable-background="new 0 0 63 63" viewBox="0 0 63 63" xmlns="http://www.w3.org/2000/svg"><g><path d="m63 40.5v-3c0-1.1-.9-2-2-2h-11.322c.209-1.303.322-2.638.322-4 0-13.807-11.193-25-25-25s-25 11.193-25 25 11.193 25 25 25c4.349 0 8.437-1.112 12-3.065v1.065c0 1.1.9 2 2 2h22c1.1 0 2-.9 2-2v-3c0-1.1-.9-2-2-2h-2c1.1 0 2-.9 2-2v-3c0-1.1-.9-2-2-2h2c1.1 0 2-.9 2-2z" fill="#5aaae7"></path><g><circle cx="25" cy="31.5" fill="#165c92" r="19"></circle><g><g><g><g><path d="m37 54.5c0 1.1.9 2 2 2h22c1.1 0 2-.9 2-2v-3c0-1.1-.9-2-2-2h-22c-1.1 0-2 .9-2 2z" fill="#ffdaaa"></path></g><g><path d="m35 47.5c0 1.1.9 2 2 2h22c1.1 0 2-.9 2-2v-3c0-1.1-.9-2-2-2h-22c-1.1 0-2 .9-2 2z" fill="#ffb655"></path></g><g><path d="m37 40.5c0 1.1.9 2 2 2h22c1.1 0 2-.9 2-2v-3c0-1.1-.9-2-2-2h-22c-1.1 0-2 .9-2 2z" fill="#ffdaaa"></path></g><g><path d="m58 40.5c-.553 0-1-.448-1-1v-1c0-.552.447-1 1-1s1 .448 1 1v1c0 .552-.447 1-1 1z" fill="#ffb655"></path></g><g><path d="m50 40.5c-.553 0-1-.448-1-1v-1c0-.552.447-1 1-1s1 .448 1 1v1c0 .552-.447 1-1 1z" fill="#ffb655"></path></g><g><path d="m54 40.5c-.553 0-1-.448-1-1v-1c0-.552.447-1 1-1s1 .448 1 1v1c0 .552-.447 1-1 1z" fill="#ffb655"></path></g><g><path d="m46 40.5c-.553 0-1-.448-1-1v-1c0-.552.447-1 1-1s1 .448 1 1v1c0 .552-.447 1-1 1z" fill="#ffb655"></path></g><g><path d="m42 40.5c-.553 0-1-.448-1-1v-1c0-.552.447-1 1-1s1 .448 1 1v1c0 .552-.447 1-1 1z" fill="#ffb655"></path></g><g><path d="m58 54.5c-.553 0-1-.448-1-1v-1c0-.552.447-1 1-1s1 .448 1 1v1c0 .552-.447 1-1 1z" fill="#ffb655"></path></g><g><path d="m50 54.5c-.553 0-1-.448-1-1v-1c0-.552.447-1 1-1s1 .448 1 1v1c0 .552-.447 1-1 1z" fill="#ffb655"></path></g><g><path d="m54 54.5c-.553 0-1-.448-1-1v-1c0-.552.447-1 1-1s1 .448 1 1v1c0 .552-.447 1-1 1z" fill="#ffb655"></path></g><g><path d="m46 54.5c-.553 0-1-.448-1-1v-1c0-.552.447-1 1-1s1 .448 1 1v1c0 .552-.447 1-1 1z" fill="#ffb655"></path></g><g><path d="m42 54.5c-.553 0-1-.448-1-1v-1c0-.552.447-1 1-1s1 .448 1 1v1c0 .552-.447 1-1 1z" fill="#ffb655"></path></g><g><path d="m52 47.5c-.553 0-1-.448-1-1v-1c0-.552.447-1 1-1s1 .448 1 1v1c0 .552-.447 1-1 1z" fill="#ffdaaa"></path></g><g><path d="m56 47.5c-.553 0-1-.448-1-1v-1c0-.552.447-1 1-1s1 .448 1 1v1c0 .552-.447 1-1 1z" fill="#ffdaaa"></path></g><g><path d="m48 47.5c-.553 0-1-.448-1-1v-1c0-.552.447-1 1-1s1 .448 1 1v1c0 .552-.447 1-1 1z" fill="#ffdaaa"></path></g><g><path d="m44 47.5c-.553 0-1-.448-1-1v-1c0-.552.447-1 1-1s1 .448 1 1v1c0 .552-.447 1-1 1z" fill="#ffdaaa"></path></g><g><path d="m40 47.5c-.553 0-1-.448-1-1v-1c0-.552.447-1 1-1s1 .448 1 1v1c0 .552-.447 1-1 1z" fill="#ffdaaa"></path></g></g><g><path d="m27.85 35.588c-.849.597-1.834.912-2.85.912-2.757 0-5-2.243-5-5s2.243-5 5-5c1.016 0 2.001.315 2.85.912.905.636 2.151.417 2.787-.486.635-.903.417-2.151-.486-2.786-.963-.676-2.033-1.127-3.15-1.385v-.255c0-1.104-.896-2-2-2-1.105 0-2 .896-2 2v.232c-4.002.913-7 4.494-7 8.768s2.998 7.855 7 8.768v.232c0 1.104.895 2 2 2 1.104 0 2-.896 2-2v-.254c1.117-.259 2.187-.709 3.15-1.385.903-.635 1.121-1.883.486-2.786-.636-.904-1.884-1.121-2.787-.487z" fill="#5aaae7"></path></g></g></g></g></g></svg>
